<?xml version="1.0" encoding="utf-8"?>
<!-- Generator: Adobe Illustrator 26.2.1, SVG Export Plug-In . SVG Version: 6.00 Build 0)  -->
<svg version="1.1" id="Layer_1" xmlns="http://www.w3.org/2000/svg" xmlns:xlink="http://www.w3.org/1999/xlink" x="0px" y="0px"
	 width="1431.6px" height="500px" viewBox="0 0 1431.6 500" style="enable-background:new 0 0 1431.6 500;" xml:space="preserve">
<style type="text/css">
	.st0{fill:none;stroke:#000000;stroke-width:18.3989;stroke-linecap:round;stroke-linejoin:round;stroke-miterlimit:10;}
	.st1{fill:none;stroke:#0A9D52;stroke-width:18.3989;stroke-linecap:round;stroke-linejoin:round;stroke-miterlimit:10;}
	.st2{fill:#0A9D52;}
</style>
<g id="Layer_1_00000009562050375526686240000015454532549155797900_">
</g>
<g id="Layer_2_00000016779047032971601970000002053777548938332309_">
</g>
<g id="Layer_3">
	<g>
		<g>
			<path class="st0" d="M1057.6,136.5c-0.4,0-0.8,0.1-1.1,0.2l0.5,0.5l0,0C1057.1,137,1057.4,136.7,1057.6,136.5L1057.6,136.5z"/>
			<path class="st0" d="M1212.6,186.3c0.7,0.7,1.4,1.4,2.1,2.2l58-59.6c-26.9-26-63.9-41.6-105.2-40.6c-42.5,1-81.3,19.3-109.7,47.9
				c-0.1,0.1-0.1,0.1-0.1,0.2C1108.3,125.9,1167.5,143.1,1212.6,186.3z"/>
			<path class="st0" d="M1057.5,137.8c-11.4,51.7,7.2,112.6,53.1,157.6l51.4-52.7L1057.5,137.8z"/>
			<path class="st0" d="M1057.8,136.4c-0.1,0.5-0.2,0.9-0.3,1.4L1162,242.6l52.7-54.1c-0.7-0.7-1.4-1.5-2.1-2.2
				C1167.5,143.1,1108.3,125.9,1057.8,136.4z"/>
			<path class="st0" d="M1057.8,136.4c-0.1,0-0.1,0-0.2,0.1c-0.2,0.2-0.5,0.5-0.7,0.7l0.6,0.6
				C1057.5,137.3,1057.7,136.9,1057.8,136.4z"/>
			<path class="st0" d="M1057.8,136.2c-0.1,0.1-0.2,0.2-0.3,0.3c0.1,0,0.1,0,0.2-0.1C1057.8,136.4,1057.8,136.3,1057.8,136.2z"/>
			<path class="st0" d="M1057.5,137.8l-0.6-0.6c-27.3,28.1-44.6,65.9-45.5,107.2c-1,42.8,15.8,81.1,43.5,108.1l55.7-57.2
				C1064.7,250.3,1046.1,189.5,1057.5,137.8z"/>
			<line class="st0" x1="1207" y1="92.6" x2="1017.1" y2="289.5"/>
		</g>
		<g>
			<path class="st1" d="M1131.6,313.5c0.5,0.5,0.9,1,1.4,1.4c44.8,43,103.6,60.2,153.9,50.1L1183,260.8L1131.6,313.5z"/>
			<path class="st1" d="M1286.9,365c0.3,0,0.6-0.1,0.9-0.2c12-51.8-6.3-112.9-52.1-158.2l-52.7,54.1L1286.9,365z"/>
			<path class="st1" d="M1287.7,365.8c0.1-0.3,0.2-0.6,0.2-0.9c-0.3,0.1-0.6,0.1-0.9,0.2L1287.7,365.8z"/>
			<path class="st1" d="M1287.7,365.8l0.7,0.7c0.8-0.8,1.6-1.5,2.4-2.3c-1,0.2-2,0.4-2.9,0.6
				C1287.8,365.1,1287.7,365.5,1287.7,365.8z"/>
			<path class="st1" d="M1287.2,367.7c0.4-0.4,0.8-0.8,1.2-1.2l-0.7-0.7C1287.5,366.4,1287.3,367,1287.2,367.7z"/>
			<path class="st1" d="M1293.8,147l-58,59.6c45.8,45.3,64.1,106.5,52.1,158.2c1-0.2,2-0.4,2.9-0.6c28.1-28.2,46-66.7,46.9-108.7
				C1338.7,212.5,1321.8,174.1,1293.8,147z"/>
			<path class="st1" d="M1286.9,365c-50.3,10.1-109.1-7.1-153.9-50.1c-0.5-0.5-0.9-1-1.4-1.4l-55.7,57.2
				c26.9,26.2,64.1,41.9,105.6,41c40.5-0.9,77.7-17.6,105.7-44c0.2-0.6,0.3-1.3,0.5-1.9L1286.9,365z"/>
			<line class="st1" x1="1332.7" y1="213.5" x2="1141.8" y2="407.3"/>
		</g>
		<g>
			<path class="st2" d="M163.1,324.8h-22.9l-20.9-27.5h-6.7v27.5H93.8v-74.9H124c4.2,0,7.8,0.3,10.9,0.8c3.1,0.5,5.9,1.6,8.6,3.2
				c2.7,1.7,4.8,3.9,6.4,6.5c1.6,2.6,2.4,6,2.4,10c0,5.7-1.3,10.4-3.9,14c-2.6,3.6-6,6.4-10.4,8.5L163.1,324.8z M132.8,272.8
				c0-1.9-0.4-3.5-1.1-4.9c-0.7-1.4-1.9-2.4-3.6-3.1c-1.2-0.5-2.5-0.8-3.9-1c-1.4-0.1-3.2-0.2-5.4-0.2h-6.3v20.2h5.4
				c2.6,0,4.8-0.2,6.7-0.5c1.8-0.3,3.4-1,4.7-2c1.2-0.9,2.1-2.1,2.7-3.4C132.5,276.7,132.8,275,132.8,272.8z"/>
			<path class="st2" d="M176,324.8v-74.9h50.7v14.3h-31.9v13.1h29.4v14.3h-29.4v18.9h31.9v14.3L176,324.8L176,324.8z"/>
			<path class="st2" d="M269.8,326.2c-5.7,0-10.8-0.6-15.1-1.7c-4.3-1.1-8.4-2.5-12.1-4.1v-17.8h1.7c3.8,3.2,7.9,5.6,12.4,7.3
				c4.5,1.7,8.9,2.6,13.2,2.6c1.1,0,2.5-0.1,4.3-0.4s3.2-0.6,4.3-1.1c1.3-0.6,2.4-1.4,3.3-2.4s1.4-2.4,1.4-4c0-1.9-0.7-3.4-2.2-4.6
				s-3.2-2-5.3-2.6c-2.5-0.7-5.3-1.3-8.2-1.9c-2.9-0.6-5.6-1.3-8.1-2.2c-5.8-2-10-4.8-12.5-8.3s-3.8-7.8-3.8-13c0-7,3-12.7,8.9-17
				c5.9-4.3,13.3-6.5,22.2-6.5c4.5,0,8.9,0.5,13.3,1.4s8.4,2.1,11.8,3.7v17.1h-1.7c-2.8-2.4-6.2-4.4-10.2-6s-8.1-2.5-12.4-2.5
				c-1.6,0-3.1,0.1-4.4,0.4c-1.3,0.2-2.7,0.7-4.1,1.4c-1.2,0.5-2.2,1.3-3,2.4c-0.9,1.1-1.3,2.2-1.3,3.5c0,1.9,0.7,3.4,2,4.6
				c1.4,1.1,4,2.1,7.9,3c2.5,0.6,4.9,1.1,7.3,1.7c2.3,0.5,4.8,1.3,7.5,2.2c5.2,1.9,9.1,4.4,11.6,7.6s3.8,7.4,3.8,12.6
				c0,7.4-2.9,13.4-8.8,18C287.7,323.9,279.8,326.2,269.8,326.2z"/>
			<path class="st2" d="M333.6,324.8v-60.6h-22.1v-14.3h63.1v14.3h-22.1v60.6H333.6z"/>
			<path d="M419.1,324.8l25.3-74.9h20.5l25.3,74.9h-19.4l-4.7-15.3h-23.5l-4.7,15.3H419.1z M462.1,295.9l-7.6-24.7l-7.6,24.7H462.1z
				"/>
			<path d="M528.1,326.2c-5.7,0-10.8-0.6-15.1-1.7s-8.4-2.5-12.1-4.1v-17.8h1.7c3.8,3.2,7.9,5.6,12.4,7.3c4.5,1.7,8.9,2.6,13.2,2.6
				c1.1,0,2.5-0.1,4.3-0.4s3.2-0.6,4.3-1.1c1.3-0.6,2.4-1.4,3.3-2.4c0.9-1,1.4-2.4,1.4-4c0-1.9-0.7-3.4-2.2-4.6s-3.2-2-5.3-2.6
				c-2.5-0.7-5.3-1.3-8.2-1.9s-5.6-1.3-8.1-2.2c-5.8-2-10-4.8-12.5-8.3s-3.8-7.8-3.8-13c0-7,3-12.7,8.9-17
				c5.9-4.3,13.3-6.5,22.2-6.5c4.5,0,8.9,0.5,13.3,1.4c4.4,0.9,8.4,2.1,11.8,3.7v17.1H556c-2.8-2.4-6.2-4.4-10.2-6
				s-8.1-2.5-12.4-2.5c-1.6,0-3.1,0.1-4.4,0.4c-1.3,0.2-2.7,0.7-4.1,1.4c-1.2,0.5-2.2,1.3-3,2.4c-0.9,1.1-1.3,2.2-1.3,3.5
				c0,1.9,0.7,3.4,2,4.6c1.4,1.1,4,2.1,7.9,3c2.5,0.6,4.9,1.1,7.3,1.7c2.3,0.5,4.8,1.3,7.5,2.2c5.2,1.9,9.1,4.4,11.6,7.6
				s3.8,7.4,3.8,12.6c0,7.4-2.9,13.4-8.8,18C546,323.9,538.1,326.2,528.1,326.2z"/>
			<path d="M600.7,326.2c-5.7,0-10.8-0.6-15.1-1.7s-8.4-2.5-12.1-4.1v-17.8h1.7c3.8,3.2,7.9,5.6,12.4,7.3c4.5,1.7,8.9,2.6,13.2,2.6
				c1.1,0,2.5-0.1,4.3-0.4c1.8-0.2,3.2-0.6,4.3-1.1c1.3-0.6,2.4-1.4,3.3-2.4c0.9-1,1.4-2.4,1.4-4c0-1.9-0.7-3.4-2.2-4.6
				s-3.2-2-5.3-2.6c-2.5-0.7-5.3-1.3-8.2-1.9s-5.6-1.3-8.1-2.2c-5.8-2-10-4.8-12.5-8.3s-3.8-7.8-3.8-13c0-7,3-12.7,8.9-17
				c5.9-4.3,13.3-6.5,22.2-6.5c4.5,0,8.9,0.5,13.3,1.4c4.4,0.9,8.4,2.1,11.8,3.7v17.1h-1.7c-2.8-2.4-6.2-4.4-10.2-6
				s-8.1-2.5-12.4-2.5c-1.6,0-3.1,0.1-4.4,0.4c-1.3,0.2-2.7,0.7-4.1,1.4c-1.2,0.5-2.2,1.3-3,2.4c-0.9,1.1-1.3,2.2-1.3,3.5
				c0,1.9,0.7,3.4,2,4.6c1.4,1.1,4,2.1,7.9,3c2.5,0.6,4.9,1.1,7.3,1.7c2.3,0.5,4.8,1.3,7.5,2.2c5.2,1.9,9.1,4.4,11.6,7.6
				s3.8,7.4,3.8,12.6c0,7.4-2.9,13.4-8.8,18C618.6,323.9,610.7,326.2,600.7,326.2z"/>
			<path d="M680.4,326.4c-10.1,0-17.8-2.4-23.2-7.3s-8.1-12-8.1-21.3V250h18.8v46.7c0,5.2,1,9.1,2.9,11.6c2,2.5,5.2,3.8,9.6,3.8
				c4.3,0,7.5-1.2,9.5-3.7c2-2.4,3-6.4,3-11.8v-46.7h18.8v47.8c0,9.2-2.6,16.3-7.9,21.3C698.6,323.9,690.8,326.4,680.4,326.4z"/>
			<path d="M802.8,324.8h-22.9L759,297.3h-6.7v27.5h-18.7v-74.9h30.1c4.2,0,7.8,0.3,10.9,0.8c3.1,0.5,5.9,1.6,8.6,3.2
				c2.7,1.7,4.8,3.9,6.4,6.5s2.4,6,2.4,10c0,5.7-1.3,10.4-3.9,14c-2.6,3.6-6,6.4-10.4,8.5L802.8,324.8z M772.6,272.8
				c0-1.9-0.4-3.5-1.1-4.9c-0.7-1.4-1.9-2.4-3.6-3.1c-1.2-0.5-2.5-0.8-3.9-1c-1.4-0.1-3.2-0.2-5.4-0.2h-6.3v20.2h5.4
				c2.6,0,4.8-0.2,6.7-0.5s3.4-1,4.7-2c1.2-0.9,2.1-2.1,2.7-3.4C772.3,276.7,772.6,275,772.6,272.8z"/>
			<path d="M815.7,324.8v-74.9h50.7v14.3h-31.9v13.1h29.4v14.3h-29.4v18.9h31.9v14.3L815.7,324.8L815.7,324.8z"/>
			<path d="M953.3,287.4c0,7-1.5,13.2-4.6,18.7s-6.9,9.8-11.6,12.7c-3.9,2.5-8.1,4.1-12.7,4.9s-9.5,1.1-14.6,1.1h-23.4v-74.9h23.2
				c5.3,0,10.2,0.3,14.8,1s8.9,2.3,12.9,4.9c4.9,3.2,8.8,7.4,11.7,12.8C951.9,273.9,953.3,280.2,953.3,287.4z M934,287.3
				c0-4.9-0.8-9.1-2.5-12.7c-1.7-3.5-4.3-6.2-7.8-8.2c-2.5-1.4-5.2-2.2-8-2.3c-2.8-0.1-6.1-0.2-10-0.2h-0.4v46.9h0.4
				c4.2,0,7.8-0.1,10.7-0.2c2.9-0.2,5.7-1,8.3-2.7c3.1-1.9,5.4-4.6,7-8C933.2,296.4,934,292.2,934,287.3z"/>
		</g>
	</g>
</g>
</svg>
